<?xml version="1.0" encoding="UTF-8" standalone="no"?>
<svg
   role="img"
   viewBox="0 0 50 50"
   fill="none"
   shape-rendering="geometricPrecision"
   text-rendering="geometricPrecision"
   version="1.1"
   id="svg70"
   sodipodi:docname="nw.svg"
   width="50"
   height="50"
   inkscape:version="1.1.2 (b8e25be833, 2022-02-05)"
   xmlns:inkscape="http://www.inkscape.org/namespaces/inkscape"
   xmlns:sodipodi="http://sodipodi.sourceforge.net/DTD/sodipodi-0.dtd"
   xmlns="http://www.w3.org/2000/svg"
   xmlns:svg="http://www.w3.org/2000/svg"
   xmlns:rdf="http://www.w3.org/1999/02/22-rdf-syntax-ns#"
   xmlns:cc="http://creativecommons.org/ns#"
   xmlns:dc="http://purl.org/dc/elements/1.1/">
  <defs
     id="defs74" />
  <sodipodi:namedview
     id="namedview72"
     pagecolor="#505050"
     bordercolor="#eeeeee"
     borderopacity="1"
     inkscape:pageshadow="0"
     inkscape:pageopacity="0"
     inkscape:pagecheckerboard="0"
     showgrid="false"
     inkscape:zoom="4.5098814"
     inkscape:cx="111.97634"
     inkscape:cy="29.490798"
     inkscape:window-width="2560"
     inkscape:window-height="1369"
     inkscape:window-x="-8"
     inkscape:window-y="-8"
     inkscape:window-maximized="1"
     inkscape:current-layer="svg70" />
  <title
     id="title2">Nightwatch logo of an owl</title>
  <g
     id="g1005"
     transform="translate(-4.00035,-4.4347064)">
    <path
       d="M 10.3226,54.0006 9.3716,53.0469 14.5778,47.824 6,39.2249 6.95567,38.2712 16.4845,47.824 Z"
       fill="#ffffff"
       id="path4" />
    <path
       d="M 52.0007,47.1477 H 15.527 v 1.3524 h 36.4737 z"
       fill="#ffffff"
       id="path6" />
    <path
       d="m 18.6078,5.9192 c -0.0152,-0.13598 0.0045,-0.27359 0.0573,-0.39975 0.0529,-0.12616 0.137,-0.23667 0.2444,-0.32103 0.1074,-0.08436 0.2346,-0.13976 0.3694,-0.16093 0.1348,-0.02117 0.2728,-0.00741 0.4008,0.03998 l 7.5686,2.79799 -7.5965,7.34934 z"
       fill="#502d17"
       id="path8" />
    <path
       d="M 45.3737,5.91947 C 45.3894,5.7836 45.3701,5.64597 45.3176,5.51974 45.2651,5.3935 45.1812,5.28288 45.0739,5.19844 44.9666,5.114 44.8395,5.05857 44.7047,5.03744 44.5699,5.0163 44.432,5.03018 44.3041,5.07774 l -7.5709,2.79799 7.5988,7.34937 z"
       fill="#502d17"
       id="path10" />
    <path
       d="m 32.0797,46.2721 c 10.0912,0 18.2717,-7.0412 18.2717,-15.727 0,-8.6858 -8.1805,-15.727 -18.2717,-15.727 -10.0912,0 -18.2717,7.0412 -18.2717,15.727 0,8.6858 8.1805,15.727 18.2717,15.727 z"
       fill="#794422"
       id="path12" />
    <path
       d="m 47.1983,26.2414 c 0,11.7282 -6.7687,21.2367 -15.114,21.2367 -8.3453,0 -15.1141,-9.5085 -15.1141,-21.2367 C 16.9702,14.5132 23.739,5 32.0843,5 c 8.3453,0 15.114,9.5178 15.114,21.2414 z"
       fill="#502d17"
       id="path14" />
    <path
       d="m 25.9762,27.0805 c 3.8936,0 7.0501,-3.6057 7.0501,-8.0536 0,-4.4478 -3.1565,-8.0535 -7.0501,-8.0535 -3.8937,0 -7.0502,3.6057 -7.0502,8.0535 0,4.4479 3.1565,8.0536 7.0502,8.0536 z"
       fill="#ffffff"
       id="path16" />
    <path
       d="m 42.6106,35.0265 c 0,5.4258 -4.7156,9.8256 -10.531,9.8256 -5.8155,0 -10.5194,-4.3881 -10.5194,-9.8256 0,-5.4374 4.7132,-9.8302 10.5287,-9.8302 5.8154,0 10.5217,4.3998 10.5217,9.8302 z"
       fill="#ffffff"
       id="path18" />
    <path
       d="m 45.1011,19.0124 c 0,4.4488 -3.1577,8.0535 -7.0524,8.0535 -3.8948,0 -7.0478,-3.5954 -7.0478,-8.0535 0,-4.4581 3.1553,-8.0559 7.0478,-8.0559 3.8924,0 7.0524,3.6258 7.0524,8.0559 z"
       fill="#ffffff"
       id="path20" />
    <path
       d="m 31.5012,21.7668 c 0.3902,-0.1526 0.8241,-0.1484 1.2114,0.0116 1.1178,0.4335 2.1092,1.1414 2.8833,2.0589 0.1207,0.1513 0.1913,0.3366 0.2022,0.5301 0.0108,0.1934 -0.0387,0.3855 -0.1417,0.5494 -0.8024,1.2487 -1.8271,2.3386 -3.0228,3.2154 -0.1489,0.1133 -0.3306,0.1746 -0.5174,0.1746 -0.1868,0 -0.3685,-0.0613 -0.5174,-0.1746 -1.1969,-0.8755 -2.2217,-1.9657 -3.0228,-3.2154 -0.1037,-0.1617 -0.1536,-0.3522 -0.1423,-0.5442 0.0113,-0.1919 0.0831,-0.3753 0.2051,-0.5237 0.7489,-0.9407 1.7381,-1.6603 2.8624,-2.0821 z"
       fill="#ff7f2b"
       id="path22" />
    <path
       d="m 31.3785,30.0439 c 0,0.3748 -0.1485,0.7342 -0.4127,0.9992 -0.2643,0.265 -0.6227,0.4138 -0.9964,0.4138 -0.3737,0 -0.7321,-0.1488 -0.9964,-0.4138 -0.2642,-0.265 -0.4127,-0.6244 -0.4127,-0.9992 z"
       fill="#d6d6d6"
       id="path24" />
    <path
       d="m 35.6593,30.0439 c 0,0.3748 -0.1485,0.7342 -0.4128,0.9992 -0.2642,0.265 -0.6226,0.4138 -0.9963,0.4138 -0.3738,0 -0.7322,-0.1488 -0.9964,-0.4138 -0.2643,-0.265 -0.4127,-0.6244 -0.4127,-0.9992 z"
       fill="#d6d6d6"
       id="path26" />
    <path
       d="m 29.2346,32.8608 c 0,0.3748 -0.1485,0.7342 -0.4127,0.9992 -0.2643,0.265 -0.6227,0.4138 -0.9964,0.4138 -0.3737,0 -0.7321,-0.1488 -0.9964,-0.4138 -0.2643,-0.265 -0.4127,-0.6244 -0.4127,-0.9992 z"
       fill="#d6d6d6"
       id="path28" />
    <path
       d="m 33.5209,32.8608 c 0,0.3748 -0.1484,0.7342 -0.4127,0.9992 -0.2642,0.265 -0.6226,0.4138 -0.9963,0.4138 -0.3738,0 -0.7322,-0.1488 -0.9964,-0.4138 -0.2643,-0.265 -0.4127,-0.6244 -0.4127,-0.9992 z"
       fill="#d6d6d6"
       id="path30" />
    <path
       d="m 37.8004,32.8608 c 0,0.3748 -0.1485,0.7342 -0.4127,0.9992 -0.2643,0.265 -0.6227,0.4138 -0.9964,0.4138 -0.3737,0 -0.7322,-0.1488 -0.9964,-0.4138 -0.2643,-0.265 -0.4127,-0.6244 -0.4127,-0.9992 z"
       fill="#d6d6d6"
       id="path32" />
    <path
       d="m 27.0991,35.6189 c 0,0.3747 -0.1485,0.7341 -0.4127,0.9991 -0.2643,0.265 -0.6227,0.4139 -0.9964,0.4139 -0.3737,0 -0.7321,-0.1489 -0.9964,-0.4139 -0.2643,-0.265 -0.4127,-0.6244 -0.4127,-0.9991 z"
       fill="#d6d6d6"
       id="path34" />
    <path
       d="m 31.3785,35.6189 c 0,0.3747 -0.1485,0.7341 -0.4127,0.9991 -0.2643,0.265 -0.6227,0.4139 -0.9964,0.4139 -0.3737,0 -0.7321,-0.1489 -0.9964,-0.4139 -0.2642,-0.265 -0.4127,-0.6244 -0.4127,-0.9991 z"
       fill="#d6d6d6"
       id="path36" />
    <path
       d="m 35.6593,35.6189 c 0,0.3747 -0.1485,0.7341 -0.4128,0.9991 -0.2642,0.265 -0.6226,0.4139 -0.9963,0.4139 -0.3738,0 -0.7322,-0.1489 -0.9964,-0.4139 -0.2643,-0.265 -0.4127,-0.6244 -0.4127,-0.9991 z"
       fill="#d6d6d6"
       id="path38" />
    <path
       d="m 39.9438,35.6189 c -0.0148,0.3651 -0.1698,0.7103 -0.4327,0.9634 -0.2628,0.2531 -0.6131,0.3945 -0.9775,0.3945 -0.3645,0 -0.7148,-0.1414 -0.9776,-0.3945 -0.2629,-0.2531 -0.4179,-0.5983 -0.4327,-0.9634 z"
       fill="#d6d6d6"
       id="path40" />
    <path
       d="m 29.2346,38.4358 c 0,0.3747 -0.1485,0.7341 -0.4127,0.9991 -0.2643,0.265 -0.6227,0.4139 -0.9964,0.4139 -0.3737,0 -0.7321,-0.1489 -0.9964,-0.4139 -0.2643,-0.265 -0.4127,-0.6244 -0.4127,-0.9991 z"
       fill="#d6d6d6"
       id="path42" />
    <path
       d="m 33.5209,38.4358 c 0,0.3747 -0.1484,0.7341 -0.4127,0.9991 -0.2642,0.265 -0.6226,0.4139 -0.9963,0.4139 -0.3738,0 -0.7322,-0.1489 -0.9964,-0.4139 -0.2643,-0.265 -0.4127,-0.6244 -0.4127,-0.9991 z"
       fill="#d6d6d6"
       id="path44" />
    <path
       d="m 37.8004,38.4358 c 0,0.3747 -0.1485,0.7341 -0.4127,0.9991 -0.2643,0.265 -0.6227,0.4139 -0.9964,0.4139 -0.3737,0 -0.7322,-0.1489 -0.9964,-0.4139 -0.2643,-0.265 -0.4127,-0.6244 -0.4127,-0.9991 z"
       fill="#d6d6d6"
       id="path46" />
    <path
       d="m 31.3785,41.1912 c 0,0.3747 -0.1485,0.7341 -0.4127,0.9991 -0.2643,0.265 -0.6227,0.4138 -0.9964,0.4138 -0.3737,0 -0.7321,-0.1488 -0.9964,-0.4138 -0.2642,-0.265 -0.4127,-0.6244 -0.4127,-0.9991 z"
       fill="#d6d6d6"
       id="path48" />
    <path
       d="m 35.6593,41.1912 c 0,0.3747 -0.1485,0.7341 -0.4128,0.9991 -0.2642,0.265 -0.6226,0.4138 -0.9963,0.4138 -0.3738,0 -0.7322,-0.1488 -0.9964,-0.4138 -0.2643,-0.265 -0.4127,-0.6244 -0.4127,-0.9991 z"
       fill="#d6d6d6"
       id="path50" />
    <path
       d="m 26.8976,22.2307 c 2.2653,0 4.1017,-1.8415 4.1017,-4.113 0,-2.2716 -1.8364,-4.1131 -4.1017,-4.1131 -2.2653,0 -4.1017,1.8415 -4.1017,4.1131 0,2.2715 1.8364,4.113 4.1017,4.113 z"
       fill="#c2ddeb"
       id="path52" />
    <path
       d="m 26.8967,20.6964 c 1.4177,0 2.567,-1.1525 2.567,-2.5742 0,-1.4216 -1.1493,-2.5741 -2.567,-2.5741 -1.4178,0 -2.5671,1.1525 -2.5671,2.5741 0,1.4217 1.1493,2.5742 2.5671,2.5742 z"
       fill="#000000"
       id="path54" />
    <path
       d="m 27.5458,18.1241 c 0.5252,0 0.951,-0.427 0.951,-0.9537 0,-0.5266 -0.4258,-0.9536 -0.951,-0.9536 -0.5253,0 -0.9511,0.427 -0.9511,0.9536 0,0.5267 0.4258,0.9537 0.9511,0.9537 z"
       fill="#ffffff"
       id="path56" />
    <path
       d="m 36.9353,22.2354 c 2.2666,0 4.1041,-1.8425 4.1041,-4.1154 0,-2.2728 -1.8375,-4.1154 -4.1041,-4.1154 -2.2666,0 -4.104,1.8426 -4.104,4.1154 0,2.2729 1.8374,4.1154 4.104,4.1154 z"
       fill="#c2ddeb"
       id="path58" />
    <path
       d="m 36.9349,20.6964 c 1.4177,0 2.567,-1.1525 2.567,-2.5742 0,-1.4216 -1.1493,-2.5741 -2.567,-2.5741 -1.4178,0 -2.5671,1.1525 -2.5671,2.5741 0,1.4217 1.1493,2.5742 2.5671,2.5742 z"
       fill="#000000"
       id="path60" />
    <path
       d="m 37.5798,18.1241 c 0.5252,0 0.951,-0.427 0.951,-0.9537 0,-0.5266 -0.4258,-0.9536 -0.951,-0.9536 -0.5252,0 -0.951,0.427 -0.951,0.9536 0,0.5267 0.4258,0.9537 0.951,0.9537 z"
       fill="#ffffff"
       id="path62" />
    <path
       d="m 40.5923,47.4929 c 0,1.0866 -0.5976,1.9633 -1.3323,1.9633 -0.7348,0 -1.3324,-0.8767 -1.3324,-1.9633 0,1.0866 -0.5976,1.9633 -1.3347,1.9633 -0.7371,0 -1.3324,-0.8767 -1.3324,-1.9633 0,1.0866 -0.5952,1.9633 -1.3323,1.9633 -0.7371,0 -1.3324,-0.8767 -1.3324,-1.9633 0,-1.5319 1.7835,-2.7746 3.9855,-2.7746 2.202,0 3.9878,1.2427 3.9878,2.7746 z"
       fill="#ff7f2b"
       id="path64" />
    <path
       d="m 31.5028,47.4929 c 0,1.0866 -0.5975,1.9633 -1.3323,1.9633 -0.7348,0 -1.3347,-0.8767 -1.3347,-1.9633 0,1.0866 -0.5953,1.9633 -1.3324,1.9633 -0.7371,0 -1.3323,-0.8767 -1.3323,-1.9633 0,1.0866 -0.5976,1.9633 -1.3324,1.9633 -0.7348,0 -1.3324,-0.8767 -1.3324,-1.9633 0,-1.5319 1.7835,-2.7746 3.9855,-2.7746 2.202,0 3.9878,1.2427 3.9878,2.7746 z"
       fill="#ff7f2b"
       id="path66" />
  </g>
  <metadata
     id="metadata891">
    <rdf:RDF>
      <cc:Work
         rdf:about="">
        <dc:title>Nightwatch logo of an owl</dc:title>
      </cc:Work>
    </rdf:RDF>
  </metadata>
</svg>
